<svg xmlns="http://www.w3.org/2000/svg" viewBox="0 0 512 512">
  <defs>
    <linearGradient id="shell" x1="10%" y1="8%" x2="88%" y2="92%">
      <stop offset="0%" stop-color="#fff1dc" />
      <stop offset="52%" stop-color="#f2dcc0" />
      <stop offset="100%" stop-color="#dfbf96" />
    </linearGradient>
    <linearGradient id="accent" x1="18%" y1="20%" x2="82%" y2="84%">
      <stop offset="0%" stop-color="#df7f48" />
      <stop offset="100%" stop-color="#8c3b18" />
    </linearGradient>
    <linearGradient id="lens" x1="0%" y1="0%" x2="100%" y2="100%">
      <stop offset="0%" stop-color="#ffffff" stop-opacity="0.95" />
      <stop offset="100%" stop-color="#f8e4cc" stop-opacity="0.5" />
    </linearGradient>
    <filter id="shadow" x="-20%" y="-20%" width="140%" height="140%">
      <feDropShadow dx="0" dy="22" stdDeviation="18" flood-color="#6c3b18" flood-opacity="0.18" />
    </filter>
  </defs>

  <rect width="512" height="512" rx="108" fill="#f3e0c7" />
  <rect x="18" y="18" width="476" height="476" rx="96" fill="url(#shell)" filter="url(#shadow)" />
  <rect x="42" y="42" width="428" height="428" rx="82" fill="none" stroke="#fff8ee" stroke-opacity="0.72" stroke-width="3" />

  <g transform="translate(78 92)">
    <rect x="0" y="0" width="238" height="286" rx="34" fill="#fffaf4" />
    <rect x="30" y="42" width="132" height="22" rx="11" fill="#2c1c0d" />
    <rect x="30" y="90" width="178" height="16" rx="8" fill="#8f7b66" />
    <rect x="30" y="124" width="164" height="16" rx="8" fill="#8f7b66" />
    <rect x="30" y="158" width="148" height="16" rx="8" fill="#8f7b66" />
    <rect x="30" y="192" width="120" height="16" rx="8" fill="#8f7b66" />
    <rect x="182" y="218" width="36" height="36" rx="12" fill="#efe1d0" />
  </g>

  <g transform="translate(244 188)">
    <circle cx="92" cy="92" r="88" fill="url(#accent)" />
    <circle cx="92" cy="92" r="68" fill="none" stroke="url(#lens)" stroke-width="18" />
    <path d="M153 153l53 53" stroke="#7a2d10" stroke-width="24" stroke-linecap="round" />
    <circle cx="92" cy="92" r="38" fill="#ffd7a8" fill-opacity="0.22" />
    <path d="M58 86c18-28 48-40 82-38" fill="none" stroke="#fff5ea" stroke-opacity="0.88" stroke-width="12" stroke-linecap="round" />
  </g>
</svg>
